<svg width="200" height="400" viewBox="0 0 200 400" xmlns="http://www.w3.org/2000/svg">
  <!-- Corporate Model Base Layer - Non-customizable parts -->

  <!-- Head/Face -->
  <ellipse cx="100" cy="35" rx="28" ry="32" fill="#E8B89D"/>

  <!-- Neck -->
  <rect x="88" y="60" width="24" height="15" fill="#E8B89D"/>

  <!-- Hair -->
  <path d="M72 25 Q72 5 100 5 Q128 5 128 25 L128 35 Q128 20 100 18 Q72 20 72 35 Z" fill="#3D2314"/>

  <!-- Eyes -->
  <ellipse cx="88" cy="35" rx="4" ry="3" fill="#2C1810"/>
  <ellipse cx="112" cy="35" rx="4" ry="3" fill="#2C1810"/>

  <!-- Nose -->
  <path d="M100 38 L97 48 L103 48 Z" fill="#D4A088" opacity="0.5"/>

  <!-- Mouth -->
  <path d="M94 53 Q100 57 106 53" stroke="#C4756E" stroke-width="1.5" fill="none"/>

  <!-- Ears -->
  <ellipse cx="72" cy="38" rx="5" ry="7" fill="#E8B89D"/>
  <ellipse cx="128" cy="38" rx="5" ry="7" fill="#E8B89D"/>

  <!-- Hands -->
  <ellipse cx="18" cy="195" rx="10" ry="12" fill="#E8B89D"/>
  <ellipse cx="182" cy="195" rx="10" ry="12" fill="#E8B89D"/>

  <!-- Leather Shoes -->
  <ellipse cx="75" cy="390" rx="22" ry="10" fill="#1A1A1A"/>
  <ellipse cx="125" cy="390" rx="22" ry="10" fill="#1A1A1A"/>

  <!-- Leather Belt -->
  <rect x="55" y="175" width="90" height="8" fill="#4A3728"/>
  <rect x="95" y="173" width="10" height="12" rx="1" fill="#C0A060"/>
</svg>
